<mxfile host="Electron" modified="2024-03-18T04:01:30.297Z" agent="Mozilla/5.0 (Windows NT 10.0; Win64; x64) AppleWebKit/537.36 (KHTML, like Gecko) draw.io/23.1.5 Chrome/120.0.6099.109 Electron/28.1.0 Safari/537.36" etag="kMr23kZCwZ8p6gA8wUyI" version="23.1.5" type="device">
  <diagram name="Страница — 1" id="ISxcG0ndB_BFA0GHeImG">
    <mxGraphModel dx="1382" dy="974" grid="1" gridSize="10" guides="1" tooltips="1" connect="1" arrows="1" fold="1" page="1" pageScale="1" pageWidth="827" pageHeight="1169" math="0" shadow="0">
      <root>
        <mxCell id="0" />
        <mxCell id="1" parent="0" />
        <mxCell id="vRo6PH9BBs-Fj9GZolll-1" value="start" style="ellipse;whiteSpace=wrap;html=1;" vertex="1" parent="1">
          <mxGeometry x="60" y="40" width="120" height="40" as="geometry" />
        </mxCell>
        <mxCell id="vRo6PH9BBs-Fj9GZolll-2" value="" style="endArrow=classic;html=1;rounded=0;labelBackgroundColor=default;strokeColor=default;align=center;verticalAlign=middle;fontFamily=Helvetica;fontSize=11;fontColor=default;shape=connector;edgeStyle=orthogonalEdgeStyle;exitX=0.5;exitY=1;exitDx=0;exitDy=0;" edge="1" source="vRo6PH9BBs-Fj9GZolll-1" parent="1">
          <mxGeometry width="50" height="50" relative="1" as="geometry">
            <mxPoint x="170.29000000000002" y="170" as="sourcePoint" />
            <mxPoint x="120" y="200" as="targetPoint" />
          </mxGeometry>
        </mxCell>
        <mxCell id="vRo6PH9BBs-Fj9GZolll-3" style="edgeStyle=orthogonalEdgeStyle;rounded=0;orthogonalLoop=1;jettySize=auto;html=1;exitX=0;exitY=0.5;exitDx=0;exitDy=0;exitPerimeter=0;endArrow=none;endFill=0;strokeWidth=1;" edge="1" source="vRo6PH9BBs-Fj9GZolll-4" parent="1">
          <mxGeometry relative="1" as="geometry">
            <mxPoint x="120" y="130" as="targetPoint" />
            <mxPoint x="180" y="130" as="sourcePoint" />
          </mxGeometry>
        </mxCell>
        <mxCell id="vRo6PH9BBs-Fj9GZolll-4" value="" style="strokeWidth=2;html=1;shape=mxgraph.flowchart.annotation_1;align=left;pointerEvents=1;" vertex="1" parent="1">
          <mxGeometry x="220" y="70" width="50" height="120" as="geometry" />
        </mxCell>
        <mxCell id="vRo6PH9BBs-Fj9GZolll-5" value="&lt;div&gt;#pragma once&lt;/div&gt;&lt;div&gt;#include &amp;lt;vector&amp;gt;&lt;/div&gt;using namespace std;&lt;br&gt;&lt;br&gt;int main(){&lt;br&gt;&lt;span style=&quot;white-space: pre;&quot;&gt;&#x9;&lt;/span&gt;void QuickSort(vector&amp;lt;int&amp;gt; &amp;amp;vect, &lt;span style=&quot;white-space: pre;&quot;&gt;&#x9;&lt;/span&gt;&lt;span style=&quot;white-space: pre;&quot;&gt;&#x9;&lt;/span&gt;int beginIndex, int pivotIndex)" style="text;strokeColor=none;fillColor=none;align=left;verticalAlign=middle;spacingLeft=4;spacingRight=4;overflow=hidden;points=[[0,0.5],[1,0.5]];portConstraint=eastwest;rotatable=0;whiteSpace=wrap;html=1;" vertex="1" parent="1">
          <mxGeometry x="220" y="70" width="230" height="120" as="geometry" />
        </mxCell>
        <mxCell id="vRo6PH9BBs-Fj9GZolll-6" style="edgeStyle=orthogonalEdgeStyle;rounded=0;orthogonalLoop=1;jettySize=auto;html=1;exitX=0;exitY=0.5;exitDx=0;exitDy=0;exitPerimeter=0;" edge="1" source="vRo6PH9BBs-Fj9GZolll-8" parent="1">
          <mxGeometry relative="1" as="geometry">
            <mxPoint x="-20.26" y="270" as="targetPoint" />
          </mxGeometry>
        </mxCell>
        <mxCell id="vRo6PH9BBs-Fj9GZolll-7" style="edgeStyle=orthogonalEdgeStyle;rounded=0;orthogonalLoop=1;jettySize=auto;html=1;exitX=1;exitY=0.5;exitDx=0;exitDy=0;exitPerimeter=0;" edge="1" source="vRo6PH9BBs-Fj9GZolll-8" parent="1">
          <mxGeometry relative="1" as="geometry">
            <mxPoint x="320" y="640" as="targetPoint" />
            <Array as="points">
              <mxPoint x="360" y="230" />
              <mxPoint x="360" y="640" />
            </Array>
          </mxGeometry>
        </mxCell>
        <mxCell id="vRo6PH9BBs-Fj9GZolll-8" value="if (beginIndex &amp;lt; pivotIndex)" style="strokeWidth=2;html=1;shape=mxgraph.flowchart.decision;whiteSpace=wrap;" vertex="1" parent="1">
          <mxGeometry x="19.74" y="200" width="200" height="60" as="geometry" />
        </mxCell>
        <mxCell id="vRo6PH9BBs-Fj9GZolll-9" value="1" style="text;html=1;strokeColor=none;fillColor=none;align=center;verticalAlign=middle;whiteSpace=wrap;rounded=0;" vertex="1" parent="1">
          <mxGeometry x="-10.260000000000002" y="200" width="30" height="30" as="geometry" />
        </mxCell>
        <mxCell id="vRo6PH9BBs-Fj9GZolll-10" value="0" style="text;html=1;strokeColor=none;fillColor=none;align=center;verticalAlign=middle;whiteSpace=wrap;rounded=0;" vertex="1" parent="1">
          <mxGeometry x="219.74" y="200" width="30" height="30" as="geometry" />
        </mxCell>
        <mxCell id="vRo6PH9BBs-Fj9GZolll-12" style="edgeStyle=orthogonalEdgeStyle;rounded=0;orthogonalLoop=1;jettySize=auto;html=1;exitX=0.5;exitY=1;exitDx=0;exitDy=0;" edge="1" parent="1" source="vRo6PH9BBs-Fj9GZolll-11">
          <mxGeometry relative="1" as="geometry">
            <mxPoint x="-20" y="330" as="targetPoint" />
          </mxGeometry>
        </mxCell>
        <mxCell id="vRo6PH9BBs-Fj9GZolll-11" value="int currentIndex = beginIndex;" style="rounded=1;whiteSpace=wrap;html=1;absoluteArcSize=1;arcSize=14;strokeWidth=2;" vertex="1" parent="1">
          <mxGeometry x="-110" y="270" width="180" height="40" as="geometry" />
        </mxCell>
        <mxCell id="vRo6PH9BBs-Fj9GZolll-13" style="edgeStyle=orthogonalEdgeStyle;rounded=0;orthogonalLoop=1;jettySize=auto;html=1;exitX=0.5;exitY=1;exitDx=0;exitDy=0;" edge="1" source="vRo6PH9BBs-Fj9GZolll-15" parent="1">
          <mxGeometry relative="1" as="geometry">
            <mxPoint x="-20" y="410" as="targetPoint" />
          </mxGeometry>
        </mxCell>
        <mxCell id="vRo6PH9BBs-Fj9GZolll-14" style="edgeStyle=orthogonalEdgeStyle;rounded=0;orthogonalLoop=1;jettySize=auto;html=1;exitX=1;exitY=0.5;exitDx=0;exitDy=0;entryX=0.5;entryY=0;entryDx=0;entryDy=0;" edge="1" source="vRo6PH9BBs-Fj9GZolll-15" parent="1" target="vRo6PH9BBs-Fj9GZolll-29">
          <mxGeometry relative="1" as="geometry">
            <mxPoint x="200" y="440" as="targetPoint" />
            <Array as="points">
              <mxPoint x="220" y="350" />
            </Array>
          </mxGeometry>
        </mxCell>
        <mxCell id="vRo6PH9BBs-Fj9GZolll-15" value="for (int i = currentIndex; &lt;br&gt;i &amp;lt; pivotIndex; ++i)" style="verticalLabelPosition=middle;verticalAlign=middle;html=1;shape=hexagon;perimeter=hexagonPerimeter2;arcSize=6;size=0.15;labelPosition=center;align=center;" vertex="1" parent="1">
          <mxGeometry x="-120" y="330" width="200" height="40" as="geometry" />
        </mxCell>
        <mxCell id="vRo6PH9BBs-Fj9GZolll-16" value="1" style="text;html=1;strokeColor=none;fillColor=none;align=center;verticalAlign=middle;whiteSpace=wrap;rounded=0;" vertex="1" parent="1">
          <mxGeometry x="-50" y="370" width="30" height="30" as="geometry" />
        </mxCell>
        <mxCell id="vRo6PH9BBs-Fj9GZolll-17" value="{" style="text;html=1;strokeColor=none;fillColor=none;align=center;verticalAlign=middle;whiteSpace=wrap;rounded=0;" vertex="1" parent="1">
          <mxGeometry x="-20" y="370" width="30" height="30" as="geometry" />
        </mxCell>
        <mxCell id="vRo6PH9BBs-Fj9GZolll-18" value="0" style="text;html=1;strokeColor=none;fillColor=none;align=center;verticalAlign=middle;whiteSpace=wrap;rounded=0;" vertex="1" parent="1">
          <mxGeometry x="80" y="320" width="30" height="30" as="geometry" />
        </mxCell>
        <mxCell id="vRo6PH9BBs-Fj9GZolll-19" style="edgeStyle=orthogonalEdgeStyle;rounded=0;orthogonalLoop=1;jettySize=auto;html=1;exitX=0;exitY=0.5;exitDx=0;exitDy=0;exitPerimeter=0;" edge="1" source="vRo6PH9BBs-Fj9GZolll-21" parent="1">
          <mxGeometry relative="1" as="geometry">
            <mxPoint x="-160.25" y="480" as="targetPoint" />
          </mxGeometry>
        </mxCell>
        <mxCell id="vRo6PH9BBs-Fj9GZolll-20" style="edgeStyle=orthogonalEdgeStyle;rounded=0;orthogonalLoop=1;jettySize=auto;html=1;exitX=1;exitY=0.5;exitDx=0;exitDy=0;exitPerimeter=0;" edge="1" source="vRo6PH9BBs-Fj9GZolll-21" parent="1">
          <mxGeometry relative="1" as="geometry">
            <mxPoint x="-20" y="560" as="targetPoint" />
            <Array as="points">
              <mxPoint x="100" y="440" />
              <mxPoint x="100" y="560" />
            </Array>
          </mxGeometry>
        </mxCell>
        <mxCell id="vRo6PH9BBs-Fj9GZolll-21" value="if (vect[i] &amp;lt; vect[pivotIndex])" style="strokeWidth=2;html=1;shape=mxgraph.flowchart.decision;whiteSpace=wrap;" vertex="1" parent="1">
          <mxGeometry x="-120.25" y="410" width="200" height="60" as="geometry" />
        </mxCell>
        <mxCell id="vRo6PH9BBs-Fj9GZolll-22" value="1" style="text;html=1;strokeColor=none;fillColor=none;align=center;verticalAlign=middle;whiteSpace=wrap;rounded=0;" vertex="1" parent="1">
          <mxGeometry x="-150.25" y="410" width="30" height="30" as="geometry" />
        </mxCell>
        <mxCell id="vRo6PH9BBs-Fj9GZolll-23" value="0" style="text;html=1;strokeColor=none;fillColor=none;align=center;verticalAlign=middle;whiteSpace=wrap;rounded=0;" vertex="1" parent="1">
          <mxGeometry x="79.75" y="410" width="30" height="30" as="geometry" />
        </mxCell>
        <mxCell id="vRo6PH9BBs-Fj9GZolll-25" style="edgeStyle=orthogonalEdgeStyle;rounded=0;orthogonalLoop=1;jettySize=auto;html=1;exitX=0.5;exitY=1;exitDx=0;exitDy=0;" edge="1" parent="1" source="vRo6PH9BBs-Fj9GZolll-24">
          <mxGeometry relative="1" as="geometry">
            <mxPoint x="-20" y="560" as="targetPoint" />
            <Array as="points">
              <mxPoint x="-160" y="560" />
            </Array>
          </mxGeometry>
        </mxCell>
        <mxCell id="vRo6PH9BBs-Fj9GZolll-24" value="swap(vect[i], vect[currentIndex++])" style="shape=parallelogram;html=1;strokeWidth=2;perimeter=parallelogramPerimeter;whiteSpace=wrap;rounded=1;arcSize=12;size=0.16666666666666666;" vertex="1" parent="1">
          <mxGeometry x="-240" y="480" width="160" height="40" as="geometry" />
        </mxCell>
        <mxCell id="vRo6PH9BBs-Fj9GZolll-26" value="{" style="text;html=1;strokeColor=none;fillColor=none;align=center;verticalAlign=middle;whiteSpace=wrap;rounded=0;" vertex="1" parent="1">
          <mxGeometry x="-50.25" y="230" width="30" height="30" as="geometry" />
        </mxCell>
        <mxCell id="vRo6PH9BBs-Fj9GZolll-27" value="}" style="text;html=1;strokeColor=none;fillColor=none;align=center;verticalAlign=middle;whiteSpace=wrap;rounded=0;" vertex="1" parent="1">
          <mxGeometry x="220" y="600" width="30" height="30" as="geometry" />
        </mxCell>
        <mxCell id="vRo6PH9BBs-Fj9GZolll-28" value="" style="endArrow=classic;html=1;rounded=0;entryX=0;entryY=0.5;entryDx=0;entryDy=0;" edge="1" parent="1" target="vRo6PH9BBs-Fj9GZolll-15">
          <mxGeometry width="50" height="50" relative="1" as="geometry">
            <mxPoint x="-20" y="560" as="sourcePoint" />
            <mxPoint x="30.590000000000146" y="460" as="targetPoint" />
            <Array as="points">
              <mxPoint x="-20" y="580" />
              <mxPoint x="-250" y="580" />
              <mxPoint x="-250" y="350" />
            </Array>
          </mxGeometry>
        </mxCell>
        <mxCell id="vRo6PH9BBs-Fj9GZolll-30" style="edgeStyle=orthogonalEdgeStyle;rounded=0;orthogonalLoop=1;jettySize=auto;html=1;exitX=0.5;exitY=1;exitDx=0;exitDy=0;entryX=0.5;entryY=0;entryDx=0;entryDy=0;" edge="1" parent="1" source="vRo6PH9BBs-Fj9GZolll-29" target="vRo6PH9BBs-Fj9GZolll-31">
          <mxGeometry relative="1" as="geometry">
            <mxPoint x="220.35294117647072" y="519.9999999999998" as="targetPoint" />
          </mxGeometry>
        </mxCell>
        <mxCell id="vRo6PH9BBs-Fj9GZolll-29" value="swap(vect[pivotIndex], vect[currentIndex]);" style="shape=parallelogram;html=1;strokeWidth=2;perimeter=parallelogramPerimeter;whiteSpace=wrap;rounded=1;arcSize=12;size=0.16666666666666666;" vertex="1" parent="1">
          <mxGeometry x="140" y="440" width="160" height="40" as="geometry" />
        </mxCell>
        <mxCell id="vRo6PH9BBs-Fj9GZolll-33" style="edgeStyle=orthogonalEdgeStyle;rounded=0;orthogonalLoop=1;jettySize=auto;html=1;exitX=0.5;exitY=1;exitDx=0;exitDy=0;entryX=0.5;entryY=0;entryDx=0;entryDy=0;" edge="1" parent="1" source="vRo6PH9BBs-Fj9GZolll-31" target="vRo6PH9BBs-Fj9GZolll-32">
          <mxGeometry relative="1" as="geometry" />
        </mxCell>
        <mxCell id="vRo6PH9BBs-Fj9GZolll-31" value="QuickSort(vect, &lt;br&gt;beginIndex, currentIndex - 1);" style="shape=parallelogram;html=1;strokeWidth=2;perimeter=parallelogramPerimeter;whiteSpace=wrap;rounded=1;arcSize=12;size=0.16666666666666666;" vertex="1" parent="1">
          <mxGeometry x="109.75" y="500" width="219.29" height="40" as="geometry" />
        </mxCell>
        <mxCell id="vRo6PH9BBs-Fj9GZolll-34" style="edgeStyle=orthogonalEdgeStyle;rounded=0;orthogonalLoop=1;jettySize=auto;html=1;exitX=0.5;exitY=1;exitDx=0;exitDy=0;" edge="1" parent="1" source="vRo6PH9BBs-Fj9GZolll-32">
          <mxGeometry relative="1" as="geometry">
            <mxPoint x="319.9999999999998" y="640" as="targetPoint" />
            <Array as="points">
              <mxPoint x="219" y="640" />
            </Array>
          </mxGeometry>
        </mxCell>
        <mxCell id="vRo6PH9BBs-Fj9GZolll-32" value="QuickSort(vect, &lt;br&gt;currentIndex + 1, pivotIndex);" style="shape=parallelogram;html=1;strokeWidth=2;perimeter=parallelogramPerimeter;whiteSpace=wrap;rounded=1;arcSize=12;size=0.16666666666666666;" vertex="1" parent="1">
          <mxGeometry x="109.75" y="560" width="219.29" height="40" as="geometry" />
        </mxCell>
        <mxCell id="vRo6PH9BBs-Fj9GZolll-35" value="}" style="text;html=1;strokeColor=none;fillColor=none;align=center;verticalAlign=middle;whiteSpace=wrap;rounded=0;" vertex="1" parent="1">
          <mxGeometry x="320" y="640" width="30" height="30" as="geometry" />
        </mxCell>
        <mxCell id="vRo6PH9BBs-Fj9GZolll-36" value="&lt;div&gt;void QuickSort(vector&amp;lt;int&amp;gt; &amp;amp;vect) {&lt;/div&gt;&lt;div&gt;&amp;nbsp; &amp;nbsp; if (vect.size() &amp;gt; 1) {&lt;span style=&quot;&quot;&gt;&lt;/span&gt;&lt;/div&gt;&lt;div&gt;&lt;span style=&quot;&quot;&gt;&lt;span style=&quot;&quot;&gt;&lt;span style=&quot;white-space: pre;&quot;&gt;&amp;nbsp;&amp;nbsp;&amp;nbsp;&amp;nbsp;&lt;/span&gt;&lt;span style=&quot;white-space: pre;&quot;&gt;&amp;nbsp;&amp;nbsp;&amp;nbsp;&amp;nbsp;&lt;/span&gt;&lt;/span&gt;QuickSort(vect, 0, vect.size() - 1);&lt;/span&gt;&lt;/div&gt;&lt;div&gt;&lt;span style=&quot;&quot;&gt;&lt;span style=&quot;&quot;&gt;&lt;span style=&quot;white-space: pre;&quot;&gt;&amp;nbsp;&amp;nbsp;&amp;nbsp;&amp;nbsp;&lt;/span&gt;&lt;/span&gt;}&lt;/span&gt;&lt;/div&gt;&lt;div&gt;}&lt;/div&gt;" style="shape=process;whiteSpace=wrap;html=1;backgroundOutline=1;align=left;" vertex="1" parent="1">
          <mxGeometry x="-240" y="60" width="280" height="90" as="geometry" />
        </mxCell>
      </root>
    </mxGraphModel>
  </diagram>
</mxfile>
